<svg xmlns="http://www.w3.org/2000/svg" xmlns:xlink="http://www.w3.org/1999/xlink" width="50" zoomAndPan="magnify" viewBox="0 0 37.5 37.499999" height="50" preserveAspectRatio="xMidYMid meet" version="1.0"><defs><g/><clipPath id="f543f01911"><path d="M 2 2 L 35.304688 2 L 35.304688 35.304688 L 2 35.304688 Z M 2 2 " clip-rule="nonzero"/></clipPath></defs><g clip-path="url(#f543f01911)"><path fill="#ffffff" d="M 35.304688 18.652344 C 35.304688 19.195312 35.277344 19.742188 35.222656 20.285156 C 35.171875 20.824219 35.089844 21.363281 34.984375 21.898438 C 34.878906 22.433594 34.746094 22.964844 34.585938 23.484375 C 34.429688 24.007812 34.246094 24.519531 34.035156 25.023438 C 33.828125 25.527344 33.59375 26.019531 33.335938 26.5 C 33.082031 26.980469 32.800781 27.449219 32.496094 27.902344 C 32.195312 28.355469 31.871094 28.792969 31.523438 29.214844 C 31.179688 29.636719 30.8125 30.039062 30.425781 30.425781 C 30.039062 30.8125 29.636719 31.179688 29.214844 31.523438 C 28.792969 31.871094 28.355469 32.195312 27.902344 32.496094 C 27.449219 32.800781 26.980469 33.082031 26.5 33.335938 C 26.019531 33.59375 25.527344 33.828125 25.023438 34.035156 C 24.519531 34.246094 24.007812 34.429688 23.484375 34.585938 C 22.964844 34.746094 22.433594 34.878906 21.898438 34.984375 C 21.363281 35.089844 20.824219 35.171875 20.285156 35.222656 C 19.742188 35.277344 19.195312 35.304688 18.652344 35.304688 C 18.105469 35.304688 17.5625 35.277344 17.019531 35.222656 C 16.476562 35.171875 15.9375 35.089844 15.402344 34.984375 C 14.867188 34.878906 14.339844 34.746094 13.816406 34.585938 C 13.296875 34.429688 12.78125 34.246094 12.277344 34.035156 C 11.773438 33.828125 11.28125 33.59375 10.800781 33.335938 C 10.320312 33.082031 9.851562 32.800781 9.398438 32.496094 C 8.945312 32.195312 8.507812 31.871094 8.085938 31.523438 C 7.664062 31.179688 7.261719 30.8125 6.875 30.425781 C 6.488281 30.039062 6.125 29.636719 5.777344 29.214844 C 5.433594 28.792969 5.109375 28.355469 4.804688 27.902344 C 4.5 27.449219 4.222656 26.980469 3.964844 26.5 C 3.707031 26.019531 3.476562 25.527344 3.265625 25.023438 C 3.058594 24.519531 2.875 24.007812 2.714844 23.484375 C 2.558594 22.964844 2.425781 22.433594 2.316406 21.898438 C 2.210938 21.363281 2.132812 20.824219 2.078125 20.285156 C 2.023438 19.742188 2 19.195312 2 18.652344 C 2 18.105469 2.023438 17.5625 2.078125 17.019531 C 2.132812 16.476562 2.210938 15.9375 2.316406 15.402344 C 2.425781 14.867188 2.558594 14.339844 2.714844 13.816406 C 2.875 13.296875 3.058594 12.78125 3.265625 12.277344 C 3.476562 11.773438 3.707031 11.28125 3.964844 10.800781 C 4.222656 10.320312 4.5 9.851562 4.804688 9.398438 C 5.109375 8.945312 5.433594 8.507812 5.777344 8.085938 C 6.125 7.664062 6.488281 7.261719 6.875 6.875 C 7.261719 6.488281 7.664062 6.125 8.085938 5.777344 C 8.507812 5.433594 8.945312 5.109375 9.398438 4.804688 C 9.851562 4.5 10.320312 4.222656 10.800781 3.964844 C 11.28125 3.707031 11.773438 3.476562 12.277344 3.265625 C 12.78125 3.058594 13.296875 2.875 13.816406 2.714844 C 14.339844 2.558594 14.867188 2.425781 15.402344 2.316406 C 15.9375 2.210938 16.476562 2.132812 17.019531 2.078125 C 17.5625 2.023438 18.105469 2 18.652344 2 C 19.195312 2 19.742188 2.023438 20.285156 2.078125 C 20.824219 2.132812 21.363281 2.210938 21.898438 2.316406 C 22.433594 2.425781 22.964844 2.558594 23.484375 2.714844 C 24.007812 2.875 24.519531 3.058594 25.023438 3.265625 C 25.527344 3.476562 26.019531 3.707031 26.5 3.964844 C 26.980469 4.222656 27.449219 4.5 27.902344 4.804688 C 28.355469 5.109375 28.792969 5.433594 29.214844 5.777344 C 29.636719 6.125 30.039062 6.488281 30.425781 6.875 C 30.8125 7.261719 31.179688 7.664062 31.523438 8.085938 C 31.871094 8.507812 32.195312 8.945312 32.496094 9.398438 C 32.800781 9.851562 33.082031 10.320312 33.335938 10.800781 C 33.59375 11.28125 33.828125 11.773438 34.035156 12.277344 C 34.246094 12.78125 34.429688 13.296875 34.585938 13.816406 C 34.746094 14.339844 34.878906 14.867188 34.984375 15.402344 C 35.089844 15.9375 35.171875 16.476562 35.222656 17.019531 C 35.277344 17.5625 35.304688 18.105469 35.304688 18.652344 Z M 35.304688 18.652344 " fill-opacity="1" fill-rule="nonzero"/></g><g fill="#000000" fill-opacity="1"><g transform="translate(4.857114, 25.164472)"><g><path d="M 1.140625 0 L 1.140625 -12.875 L 7.75 -12.875 C 8.550781 -12.875 9.238281 -12.773438 9.8125 -12.578125 C 10.394531 -12.378906 10.875 -12.097656 11.25 -11.734375 C 11.507812 -11.460938 11.710938 -11.15625 11.859375 -10.8125 C 12.003906 -10.46875 12.078125 -10.078125 12.078125 -9.640625 L 12.078125 -9.59375 C 12.078125 -8.863281 11.882812 -8.265625 11.5 -7.796875 C 11.125 -7.328125 10.65625 -6.972656 10.09375 -6.734375 C 10.863281 -6.472656 11.484375 -6.097656 11.953125 -5.609375 C 12.421875 -5.128906 12.65625 -4.457031 12.65625 -3.59375 L 12.65625 -3.546875 C 12.65625 -2.441406 12.222656 -1.570312 11.359375 -0.9375 C 10.503906 -0.3125 9.3125 0 7.78125 0 Z M 8.5625 -8.859375 L 8.5625 -8.90625 C 8.5625 -9.257812 8.425781 -9.53125 8.15625 -9.71875 C 7.882812 -9.90625 7.484375 -10 6.953125 -10 L 4.609375 -10 L 4.609375 -7.75 L 6.859375 -7.75 C 7.398438 -7.75 7.816406 -7.835938 8.109375 -8.015625 C 8.410156 -8.203125 8.5625 -8.484375 8.5625 -8.859375 Z M 9.078125 -4.078125 C 9.078125 -4.421875 8.9375 -4.695312 8.65625 -4.90625 C 8.375 -5.125 7.9375 -5.234375 7.34375 -5.234375 L 4.609375 -5.234375 L 4.609375 -2.875 L 7.375 -2.875 C 7.925781 -2.875 8.347656 -2.972656 8.640625 -3.171875 C 8.929688 -3.367188 9.078125 -3.660156 9.078125 -4.046875 Z M 9.078125 -4.078125 "/></g></g></g><g fill="#000000" fill-opacity="1"><g transform="translate(18.004251, 25.164472)"><g><path d="M 7.703125 0.25 C 6.710938 0.25 5.785156 0.0859375 4.921875 -0.234375 C 4.066406 -0.566406 3.328125 -1.023438 2.703125 -1.609375 C 2.085938 -2.191406 1.601562 -2.894531 1.25 -3.71875 C 0.894531 -4.539062 0.71875 -5.4375 0.71875 -6.40625 L 0.71875 -6.4375 C 0.71875 -7.363281 0.890625 -8.238281 1.234375 -9.0625 C 1.585938 -9.882812 2.070312 -10.59375 2.6875 -11.1875 C 3.300781 -11.78125 4.03125 -12.25 4.875 -12.59375 C 5.71875 -12.945312 6.632812 -13.125 7.625 -13.125 C 8.757812 -13.125 9.742188 -12.960938 10.578125 -12.640625 C 11.421875 -12.316406 12.179688 -11.863281 12.859375 -11.28125 L 10.765625 -8.734375 C 10.304688 -9.117188 9.832031 -9.414062 9.34375 -9.625 C 8.851562 -9.84375 8.289062 -9.953125 7.65625 -9.953125 C 7.1875 -9.953125 6.75 -9.859375 6.34375 -9.671875 C 5.945312 -9.484375 5.601562 -9.234375 5.3125 -8.921875 C 5.019531 -8.609375 4.785156 -8.238281 4.609375 -7.8125 C 4.441406 -7.382812 4.359375 -6.925781 4.359375 -6.4375 L 4.359375 -6.40625 C 4.359375 -5.363281 4.6875 -4.503906 5.34375 -3.828125 C 6 -3.148438 6.835938 -2.8125 7.859375 -2.8125 C 8.296875 -2.8125 8.679688 -2.859375 9.015625 -2.953125 C 9.359375 -3.046875 9.65625 -3.175781 9.90625 -3.34375 L 9.90625 -4.90625 L 7.390625 -4.90625 L 7.390625 -7.515625 L 13.296875 -7.515625 L 13.296875 -1.75 C 12.617188 -1.1875 11.8125 -0.710938 10.875 -0.328125 C 9.9375 0.0546875 8.878906 0.25 7.703125 0.25 Z M 7.703125 0.25 "/></g></g></g></svg>